# xmcd
#
# Track frame offsets:
# 150
# 32280
# 51737
# 69725
# 88682
# 105225
# 122770
# 142287
# 158702
# 173640
# 191445
# 208232
# 242392
# 259462
# 275917
# 298282
#
# Disc length: 4319 seconds
#
#
# Revision: 1
# Processed by: cddbd v1.5.2PL0 Copyright (c) Steve Scherf et al.
# Submitted via: FreeRIP 2.945 
#
DISCID=fa10dd10
DTITLE=אתניקס ואייל גולן
DYEAR=2000
DGENRE=Other
TTITLE0=אלינור
TTITLE1=מחר אני בבית
TTITLE2=קן של אהבה
TTITLE3=בלעדיך
TTITLE4=הסתכלי אלי
TTITLE5=יפה שלי
TTITLE6=ישם של טעויות
TTITLE7=דמעות
TTITLE8=איזקינו הדוד
TTITLE9=תותים
TTITLE10=BMW שחורה
TTITLE11=בובה ג'סיקה
TTITLE12=צאי אל החלון
TTITLE13=לב של גבר
TTITLE14=הפרח בגני
TTITLE15=רק אהבה תנצח
EXTD=
EXTT0=
EXTT1=
EXTT2=
EXTT3=
EXTT4=
EXTT5=
EXTT6=
EXTT7=
EXTT8=
EXTT9=
EXTT10=
EXTT11=
EXTT12=
EXTT13=
EXTT14=
EXTT15=
PLAYORDER=
